#!OML:ASF H:\BreakDance\Project 1\Capture day 1\Session 1\Male.ASF
:FULLY-SPECIFIED
:DEGREES
80
root -4.49366 15.8325 2.17473 176.995 -64.5202 179.291
lowerback -6.9858 1.51584 2.06975
upperback 3.84907 1.92196 -1.90746
thorax 8.12357 1.09621 -2.91291
lowerneck 1.29882 6.26487 5.4451
upperneck -5.21896 8.43817 -1.00813
head -1.57177 4.10413 -1.35247
rclavicle -1.89094e-014 2.14687e-014
rhumerus -30.7466 4.82845 -92.515
rradius 70.4284
rwrist 12.6745
rhand -24.1609 -27.5697
rfingers 7.12502
rthumb 2.32195 -57.5368
lclavicle -1.89094e-014 2.14687e-014
lhumerus -33.4296 -3.56778 84.9138
lradius 68.9709
lwrist -14.3883
lhand -35.0258 -27.843
lfingers 7.12502
lthumb -8.16966 1.97902
rfemur -10.0202 2.76406 9.15839
rtibia 37.7631
rfoot -30.6433 -22.7106
rtoes 10.8331
lfemur -12.6833 3.61371 -8.20172
ltibia 42.8224
lfoot -29.5444 20.4137
ltoes -34.2495
81
root -4.49078 15.8332 2.17617 177.051 -64.5367 179.218
lowerback -6.94474 1.49942 2.01895
upperback 3.84857 1.90573 -1.91386
thorax 8.09615 1.08521 -2.89412
lowerneck 1.37709 6.26042 5.49008
upperneck -5.3024 8.43652 -1.07065
head -1.60795 4.102 -1.38536
rclavicle -2.27733e-014 -1.94809e-014
rhumerus -30.7476 4.85107 -92.5271
rradius 70.3882
rwrist 12.7318
rhand -23.7393 -26.8387
rfingers 7.12502
rthumb 2.72912 -56.8009
lclavicle -2.27733e-014 -1.94809e-014
lhumerus -33.4061 -3.51178 84.9094
lradius 68.9154
lwrist -14.3527
lhand -35.0037 -27.8363
lfingers 7.12502
lthumb -8.14835 1.98656
rfemur -10.0159 2.73621 9.11696
rtibia 37.7638
rfoot -30.5986 -22.7292
rtoes 10.6343
lfemur -12.6886 3.59075 -8.2449
ltibia 42.817
lfoot -29.5265 20.4392
ltoes -34.2288
82
root -4.48732 15.8338 2.17736 177.083 -64.5472 179.176
lowerback -6.90613 1.49008 1.98234
upperback 3.85139 1.89739 -1.91871
thorax 8.07483 1.07892 -2.88049
lowerneck 1.42323 6.26085 5.52292
upperneck -5.35448 8.43958 -1.11274
head -1.62964 4.10269 -1.40759
rclavicle 2.44257e-014 -9.14409e-015
rhumerus -30.7375 4.85501 -92.5426
rradius 70.3456
rwrist 12.7787
rhand -23.2803 -26.1177
rfingers 7.12502
rthumb 3.17242 -56.0739
lclavicle 2.44257e-014 -9.14409e-015
lhumerus -33.3796 -3.45925 84.9012
lradius 68.8644
lwrist -14.3353
lhand -34.9742 -27.8629
lfingers 7.12502
lthumb -8.11985 1.96114
rfemur -10.0199 2.73201 9.09759
rtibia 37.7658
rfoot -30.539 -22.7847
rtoes 10.4246
lfemur -12.7004 3.58562 -8.26641
ltibia 42.8131
lfoot -29.4862 20.4591
ltoes -34.1795
83
root -4.48313 15.8341 2.17846 177.087 -64.5591 179.171
lowerback -6.8749 1.47895 1.95063
upperback 3.86291 1.88519 -1.91096
thorax 8.06664 1.07087 -2.85662
lowerneck 1.41282 6.26996 5.52343
upperneck -5.36766 8.44996 -1.13932
head -1.63057 4.10819 -1.41602
rclavicle -7.25564e-015 5.1684e-015
rhumerus -30.705 4.87349 -92.5462
rradius 70.3009
rwrist 12.8023
rhand -22.7016 -25.3625
rfingers 7.12502
rthumb 3.73126 -55.3096
lclavicle -7.25564e-015 5.1684e-015
lhumerus -33.3456 -3.37994 84.8984
lradius 68.8254
lwrist -14.3468
lhand -34.9441 -27.9251
lfingers 7.12502
lthumb -8.09078 1.90004
rfemur -10.0319 2.75108 9.10246
rtibia 37.7669
rfoot -30.5164 -22.8297
rtoes 10.4199
lfemur -12.7269 3.59468 -8.26367
ltibia 42.8132
lfoot -29.4303 20.4619
ltoes -34.1189
84
root -4.47819 15.8343 2.17965 177.087 -64.5775 179.18
lowerback -6.84964 1.46074 1.91304
upperback 3.88173 1.86315 -1.89065
thorax 8.06841 1.05749 -2.81738
lowerneck 1.3536 6.28777 5.48088
upperneck -5.35511 8.46802 -1.15029
head -1.61673 4.11855 -1.40958
rclavicle -2.72956e-014 1.98785e-015
rhumerus -30.6588 4.92491 -92.5334
rradius 70.2632
rwrist 12.793
rhand -22.5359 -25.2865
rfingers 7.12502
rthumb 3.8913 -55.2307
lclavicle -2.72956e-014 1.98785e-015
lhumerus -33.3078 -3.26387 84.9036
lradius 68.8032
lwrist -14.3911
lhand -34.9186 -28.0115
lfingers 7.12502
lthumb -8.06625 1.81456
rfemur -10.0533 2.78283 9.11771
rtibia 37.7658
rfoot -30.5386 -22.851
rtoes 10.6284
lfemur -12.7706 3.61112 -8.25103
ltibia 42.8179
lfoot -29.3664 20.4498
ltoes -34.0686
85
root -4.47277 15.8345 2.18109 177.098 -64.6026 179.186
lowerback -6.825 1.43565 1.8711
upperback 3.9021 1.832 -1.86576
thorax 8.07132 1.03929 -2.77207
lowerneck 1.27252 6.31051 5.40685
upperneck -5.33459 8.4909 -1.14891
head -1.59812 4.13181 -1.3929
rclavicle 1.2921e-015 -1.66979e-014
rhumerus -30.6143 5.00619 -92.5133
rradius 70.2382
rwrist 12.7489
rhand -22.4181 -25.3016
rfingers 7.12502
rthumb 4.00502 -55.2437
lclavicle 1.2921e-015 -1.66979e-014
lhumerus -33.2715 -3.12914 84.9105
lradius 68.7957
lwrist -14.4586
lhand -34.9091 -28.0963
lfingers 7.12502
lthumb -8.05706 1.73012
rfemur -10.0831 2.80105 9.12949
rtibia 37.7625
rfoot -30.5695 -22.8566
rtoes 10.8837
lfemur -12.8271 3.62211 -8.24247
ltibia 42.8254
lfoot -29.3058 20.4408
ltoes -34.0512
